<?xml version="1.0" encoding="utf-8"?>
<!-- Generator: Adobe Illustrator 25.4.1, SVG Export Plug-In . SVG Version: 6.00 Build 0)  -->
<svg version="1.1" id="Layer_1" xmlns="http://www.w3.org/2000/svg" xmlns:xlink="http://www.w3.org/1999/xlink" x="0px" y="0px"
	 viewBox="0 0 172.3 77.1" style="enable-background:new 0 0 172.3 77.1;" xml:space="preserve">
<style type="text/css">
	.st0{fill:#FFFFFF;}
	.st1{fill-rule:evenodd;clip-rule:evenodd;fill:#023F88;}
	.st2{fill-rule:evenodd;clip-rule:evenodd;fill:#FFFFFF;}
	.st3{fill-rule:evenodd;clip-rule:evenodd;fill:#00B7CE;}
</style>
<g>
	<g>
		<path class="st0" d="M0,0h47v53.6c0,13-10.6,23.5-23.5,23.5C10.6,77.1,0,66.5,0,53.6V0z"/>
		<path class="st1" d="M45.3,7.5H1.7v46.1c0,12,9.8,21.8,21.8,21.8c12,0,21.7-9.8,21.7-21.8V7.5z"/>
		<polygon class="st2" points="34.1,34.8 36.1,36.6 39.8,36.6 41.7,34.8 41.7,34.8 34.1,34.8 		"/>
		<polygon class="st2" points="9.1,13.3 7.3,23.2 10.9,23.2 		"/>
		<polygon class="st2" points="36.1,32.3 36.1,32.3 34.1,32.3 34.1,33.8 41.7,33.8 41.7,32.3 39.8,32.3 39.8,32.3 		"/>
		<polygon class="st2" points="12.9,34.8 12.9,34.8 5.3,34.8 5.3,34.8 7.2,36.6 10.9,36.6 		"/>
		<rect x="36.1" y="37.6" class="st2" width="3.7" height="3.5"/>
		<polygon class="st2" points="10.9,37.5 7.2,37.5 7.2,41.1 10.9,41.1 		"/>
		<path class="st2" d="M36.1,44.6h-1.2v-2.5h-1.2v0.7h-1.2v-0.7H14.4v0.7h-1.2v-0.7h-1.2v2.5h-1.2v-2.5H7.2l0,12.3
			c0,5.8,3.1,11.2,8.2,14.1c-3.3-2.5-5.3-6.5-5.3-10.6c0-6.7,5-12.4,11.6-13.2h3.4c6.6,0.9,11.6,6.5,11.6,13.2
			c0,4.1-1.9,8.1-5.2,10.6c5-2.9,8.1-8.3,8.1-14.1V42.1h-3.7V44.6z"/>
		<rect x="5.3" y="32.3" class="st2" width="7.7" height="1.5"/>
		<polygon class="st2" points="10.9,24.2 7.2,24.2 7.2,31.3 10.9,31.3 		"/>
		<rect x="36.1" y="24.2" class="st2" width="3.7" height="7.1"/>
		<polygon class="st2" points="37.9,13.3 36.1,23.2 39.7,23.2 		"/>
		<polygon class="st3" points="20,49.3 27,49.3 27.6,61.2 19.4,61.2 		"/>
		<polygon class="st2" points="23.5,55.9 25.2,61.2 30.8,61.2 26.3,64.4 28,69.7 23.5,66.4 19,69.7 20.7,64.4 16.3,61.2 21.8,61.2 
					"/>
		<polygon class="st3" points="29.4,47 29.4,47.7 27.9,47.7 27.9,48.7 19.1,48.7 19.1,47.7 17.6,47.7 17.6,47 		"/>
		<polygon class="st3" points="20,45.4 15.6,42.8 31.4,42.8 27,45.4 27,46.3 20,46.3 		"/>
		<path class="st3" d="M23.9,31.8c4.8,0.2,8.7,4.2,8.7,9.1H14.4c0-4.9,3.9-8.9,8.7-9.1l0.4-2.8L23.9,31.8z"/>
		<rect x="13.3" y="43.4" class="st1" width="1.2" height="1.2"/>
		<rect x="32.6" y="43.4" class="st1" width="1.2" height="1.2"/>
		<polygon class="st2" points="14.6,24.9 11.9,22.7 15.4,23.7 16.4,22.5 17.4,24.4 20.9,25.6 18.1,25.9 19.2,28.1 16.2,26.1 
			13.6,26.3 		"/>
		<polygon class="st2" points="21.6,21.7 24.6,22.5 25.4,21.6 26.2,23.1 29,24.1 26.8,24.3 27.6,26.2 25.2,24.4 23.1,24.6 
			23.9,23.5 		"/>
		<polygon class="st2" points="28.2,19.5 30.5,20.2 31.1,19.2 31.8,20.6 34,21.3 32.3,21.5 32.9,22.9 31.1,21.6 29.4,21.9 
			29.9,20.9 		"/>
		<polygon class="st2" points="31,16.2 32.9,16.6 33.3,15.9 34,16.9 35.8,17.4 34.4,17.6 35,18.7 33.4,17.8 32,18 32.4,17.2 		"/>
		<polygon class="st2" points="29.7,13.1 31.1,13.3 31.4,12.9 31.9,13.5 33.2,13.8 32.2,14 32.7,14.8 31.5,14.2 30.4,14.5 
			30.8,13.8 		"/>
		<path class="st1" d="M28.8,5h-2.6l-0.3,0.6h-1.8l2.4-4.2h2.1L31,5.5h-1.8L28.8,5z M26.6,4.2h1.8l-0.9-1.7L26.6,4.2z M6.5,5H3.8
			L3.5,5.5H1.7l2.4-4.2h2.1l2.4,4.2H6.8L6.5,5z M4.2,4.2h1.8L5.1,2.5L4.2,4.2z M43.1,5h-2.7l-0.3,0.6h-1.8l2.4-4.2h2.1l2.4,4.2h-1.8
			L43.1,5z M40.9,4.2h1.9l-0.9-1.7L40.9,4.2z M9.5,1.3h1.8l2.4,2.3V1.3h1.8v4.2h-1.8l-2.4-2.3v2.3H9.5V1.3z M17.1,1.3h1.9v1.6
			l2.3-1.6l2.4,0l-2.3,1.6l2.4,2.6h-2.3L20,3.8l-0.9,0.6v1h-1.9V1.3z M36.8,3.5c0.6,0.2,1,0.7,1.1,1.3L38,5.5h-2l-0.1-0.7
			c-0.1-0.6-0.2-1-1-1h-1v1.7h-2V1.3h3.8c0.4,0,1,0,1.4,0.3c0.3,0.2,0.5,0.4,0.5,0.9C37.7,3,37.2,3.4,36.8,3.5 M33.9,3h0.8
			c0.2,0,0.6,0,0.8-0.2c0.1-0.1,0.1-0.2,0.1-0.3c0-0.1-0.1-0.2-0.2-0.3c-0.1-0.1-0.4-0.1-0.7-0.1h-0.9V3z"/>
	</g>
	<g>
		<g>
			<g>
				<path class="st0" d="M61.3,12.6c0-0.1,0.1-0.2,0.2-0.2h2.7c0.1,0,0.2,0,0.2,0.2l3.8,11c0,0.1,0,0.2-0.1,0.2h-2.8
					c-0.1,0-0.2-0.1-0.2-0.2l-0.5-1.8H61l-0.5,1.8c0,0.1-0.1,0.2-0.2,0.2h-2.7c-0.1,0-0.2-0.1-0.1-0.2L61.3,12.6z M64,19.5l-1.1-3.5
					h0l-1.1,3.5H64z"/>
				<path class="st0" d="M68.7,12.6c0-0.1,0-0.2,0.2-0.2h2.5c0.2,0,0.2,0,0.3,0.2l3.4,6.4h0.1v-6.4c0-0.1,0.1-0.2,0.2-0.2h2.3
					c0.1,0,0.2,0,0.2,0.2v11c0,0.1,0,0.2-0.2,0.2h-2.5c-0.2,0-0.2-0.1-0.3-0.2l-3.4-6.4h-0.1v6.4c0,0.1-0.1,0.2-0.2,0.2h-2.3
					c-0.1,0-0.2-0.1-0.2-0.2V12.6z"/>
				<path class="st0" d="M79,12.6c0-0.1,0.1-0.2,0.2-0.2h2.6c0.1,0,0.2,0,0.2,0.2v4.4l3.3-4.5c0.1-0.1,0.2-0.1,0.3-0.1h2.9
					c0.1,0,0.2,0.1,0.1,0.2l-3.4,4.4l3.6,6.6c0,0.1,0,0.2-0.1,0.2h-3c-0.1,0-0.2-0.1-0.3-0.1l-2.2-4.3L81.9,21v2.6
					c0,0.1,0,0.2-0.2,0.2h-2.6c-0.1,0-0.2-0.1-0.2-0.2V12.6z"/>
				<path class="st0" d="M92.4,12.6c0-0.1,0.1-0.2,0.2-0.2h2.7c0.1,0,0.2,0,0.2,0.2l3.8,11c0,0.1,0,0.2-0.1,0.2h-2.8
					c-0.1,0-0.2-0.1-0.2-0.2l-0.5-1.8h-3.7l-0.5,1.8c0,0.1-0.1,0.2-0.2,0.2h-2.7c-0.1,0-0.2-0.1-0.1-0.2L92.4,12.6z M95,19.5
					L94,15.9h-0.1l-1.1,3.5H95z"/>
				<path class="st0" d="M105.9,23.8c-0.1,0-0.2-0.1-0.2-0.2l-1.7-3.9h-1.1c-0.1,0-0.1,0-0.1,0.1v3.8c0,0.1,0,0.2-0.2,0.2H100
					c-0.1,0-0.2-0.1-0.2-0.2v-11c0-0.1,0-0.2,0.2-0.2h4.6c2.6,0,4.1,1.5,4.1,3.7c0,1.4-0.7,2.6-1.9,3.2l2.1,4.3c0,0.1,0,0.2-0.1,0.2
					H105.9z M104.4,17.4c0.9,0,1.3-0.5,1.3-1.2c0-0.7-0.5-1.2-1.3-1.2h-1.6c-0.1,0-0.1,0-0.1,0.1v2.2c0,0.1,0,0.1,0.1,0.1H104.4z"/>
				<path class="st0" d="M112.8,12.6c0-0.1,0.1-0.2,0.2-0.2h2.7c0.1,0,0.2,0,0.2,0.2l3.8,11c0,0.1,0,0.2-0.1,0.2H117
					c-0.1,0-0.2-0.1-0.2-0.2l-0.5-1.8h-3.7l-0.5,1.8c0,0.1-0.1,0.2-0.2,0.2H109c-0.1,0-0.2-0.1-0.1-0.2L112.8,12.6z M115.5,19.5
					l-1.1-3.5h-0.1l-1.1,3.5H115.5z"/>
			</g>
		</g>
		<g>
			<path class="st0" d="M57.4,29.3c0-0.1,0-0.2,0.2-0.2H60c0.1,0,0.2,0,0.3,0.2l2.6,5.8h0.1l2.5-5.8c0-0.1,0.1-0.2,0.3-0.2h2.4
				c0.1,0,0.2,0,0.2,0.2v10.9c0,0.1,0,0.2-0.2,0.2h-2.3c-0.1,0-0.2,0-0.2-0.2v-5.8h-0.1l-1.8,4.2c-0.1,0.2-0.2,0.2-0.3,0.2h-1.3
				c-0.1,0-0.2-0.1-0.3-0.2l-1.8-4.2H60v5.8c0,0.1,0,0.2-0.2,0.2h-2.3c-0.1,0-0.2,0-0.2-0.2V29.3z"/>
			<path class="st0" d="M70.1,29.3c0-0.1,0-0.2,0.2-0.2h7.3c0.1,0,0.2,0,0.2,0.2v2.1c0,0.1,0,0.2-0.2,0.2h-4.5c-0.1,0-0.1,0-0.1,0.1
				v1.7c0,0.1,0,0.1,0.1,0.1h3.7c0.1,0,0.2,0,0.2,0.2v2.1c0,0.1,0,0.2-0.2,0.2h-3.7c-0.1,0-0.1,0-0.1,0.1v1.8c0,0.1,0,0.1,0.1,0.1
				h4.5c0.1,0,0.2,0,0.2,0.2v2.1c0,0.1,0,0.2-0.2,0.2h-7.3c-0.1,0-0.2,0-0.2-0.2V29.3z"/>
			<path class="st0" d="M81.8,40.3L81.8,40.3c-0.1,0-0.1,0-0.1,0c0,0,0,0,0-0.1v0v-8.4c0,0,0-0.1-0.1-0.1h0h-2.7h0c0,0,0,0-0.1,0
				l0,0l0,0c0,0,0,0,0-0.1v-2.2c0-0.1,0-0.1,0.1-0.2h0h8.6c0,0,0.1,0,0.1,0c0,0,0,0,0,0c0,0,0,0,0,0.1v2.2c0,0,0,0.1,0,0.1
				c0,0,0,0-0.1,0h0h-2.7c0,0,0,0-0.1,0l0,0v0v8.4v0c0,0,0,0.1-0.1,0.1c0,0,0,0-0.1,0H81.8z"/>
			<path class="st0" d="M94.6,40.3c-0.1,0-0.2,0-0.2-0.2l-1.7-3.8h-1.1c-0.1,0-0.1,0-0.1,0.1v3.7c0,0.1,0,0.2-0.2,0.2h-2.6
				c-0.1,0-0.2,0-0.2-0.2V29.3c0-0.1,0-0.2,0.2-0.2h4.6c2.6,0,4,1.5,4,3.6c0,1.4-0.7,2.5-1.8,3.1l2.1,4.3c0,0.1,0,0.2-0.1,0.2H94.6z
				 M93.1,33.9c0.8,0,1.3-0.5,1.3-1.2c0-0.7-0.5-1.2-1.3-1.2h-1.5c-0.1,0-0.1,0-0.1,0.1v2.2c0,0.1,0,0.1,0.1,0.1H93.1z"/>
			<path class="st0" d="M99,37.7c-0.3-0.8-0.3-1.5-0.3-3c0-1.5,0.1-2.2,0.3-3c0.6-1.8,2.2-2.7,4.2-2.7c2,0,3.6,0.9,4.2,2.7
				c0.3,0.9,0.3,1.5,0.3,3c0,1.5-0.1,2.2-0.3,3c-0.6,1.8-2.2,2.7-4.2,2.7C101.2,40.5,99.6,39.6,99,37.7 M104.7,36.9
				c0.1-0.4,0.2-0.9,0.2-2.2c0-1.3,0-1.8-0.2-2.2c-0.2-0.6-0.7-1-1.4-1c-0.7,0-1.2,0.3-1.4,1c-0.1,0.4-0.2,0.9-0.2,2.2
				c0,1.3,0,1.8,0.2,2.2c0.2,0.6,0.7,1,1.4,1C103.9,37.9,104.5,37.6,104.7,36.9"/>
			<path class="st0" d="M109.5,40.3c-0.1,0-0.2,0-0.2-0.2V29.3c0-0.1,0-0.2,0.2-0.2h4.5c2.7,0,4.1,1.6,4.1,3.7
				c0,2.2-1.4,3.7-4.1,3.7h-1.6c-0.1,0-0.1,0-0.1,0.1v3.5c0,0.1,0,0.2-0.2,0.2H109.5z M113.8,34.1c0.9,0,1.4-0.5,1.4-1.3
				c0-0.8-0.5-1.3-1.4-1.3h-1.5c-0.1,0-0.1,0-0.1,0.1V34c0,0.1,0,0.1,0.1,0.1H113.8z"/>
			<path class="st0" d="M119.4,37.7c-0.3-0.8-0.3-1.5-0.3-3c0-1.5,0.1-2.2,0.3-3c0.6-1.8,2.2-2.7,4.2-2.7c2,0,3.6,0.9,4.2,2.7
				c0.3,0.9,0.3,1.5,0.3,3c0,1.5-0.1,2.2-0.3,3c-0.6,1.8-2.2,2.7-4.2,2.7C121.7,40.5,120,39.6,119.4,37.7 M125.1,36.9
				c0.1-0.4,0.2-0.9,0.2-2.2c0-1.3,0-1.8-0.2-2.2c-0.2-0.6-0.7-1-1.4-1c-0.7,0-1.2,0.3-1.4,1c-0.1,0.4-0.2,0.9-0.2,2.2
				c0,1.3,0,1.8,0.2,2.2c0.2,0.6,0.7,1,1.4,1C124.4,37.9,124.9,37.6,125.1,36.9"/>
			<path class="st0" d="M129.7,29.3c0-0.1,0-0.2,0.2-0.2h2.6c0.1,0,0.2,0,0.2,0.2v8.4c0,0.1,0,0.1,0.1,0.1h4.7c0.1,0,0.2,0,0.2,0.2
				v2.2c0,0.1,0,0.2-0.2,0.2h-7.6c-0.1,0-0.2,0-0.2-0.2V29.3z"/>
			<path class="st0" d="M138.8,29.3c0-0.1,0-0.2,0.2-0.2h2.6c0.1,0,0.2,0,0.2,0.2v10.9c0,0.1,0,0.2-0.2,0.2H139
				c-0.1,0-0.2,0-0.2-0.2V29.3z"/>
			<path class="st0" d="M146,40.3L146,40.3c-0.1,0-0.1,0-0.1,0c0,0,0,0,0-0.1v0v-8.4c0,0,0-0.1-0.1-0.1h0H143h0c0,0,0,0-0.1,0l0,0
				l0,0c0,0,0,0,0-0.1v-2.2c0-0.1,0-0.1,0.1-0.2h0h8.6c0,0,0.1,0,0.1,0c0,0,0,0,0,0c0,0,0,0,0,0.1v2.2c0,0,0,0.1,0,0.1
				c0,0,0,0-0.1,0h0h-2.7c0,0,0,0-0.1,0l0,0v0v8.4v0c0,0,0,0.1-0.1,0.1c0,0,0,0-0.1,0H146z"/>
			<path class="st0" d="M155.3,29.3c0-0.1,0.1-0.2,0.2-0.2h2.7c0.1,0,0.2,0,0.2,0.2l3.8,10.9c0,0.1,0,0.2-0.1,0.2h-2.7
				c-0.1,0-0.2,0-0.2-0.2l-0.5-1.7H155l-0.5,1.7c0,0.1-0.1,0.2-0.2,0.2h-2.7c-0.1,0-0.1,0-0.1-0.2L155.3,29.3z M157.9,36l-1-3.5h0
				l-1.1,3.5H157.9z"/>
			<path class="st0" d="M163.3,29.3c0-0.1,0-0.2,0.2-0.2h2.4c0.1,0,0.2,0,0.3,0.2l3.4,6.3h0.1v-6.3c0-0.1,0-0.2,0.2-0.2h2.3
				c0.1,0,0.2,0,0.2,0.2v10.9c0,0.1,0,0.2-0.2,0.2h-2.4c-0.1,0-0.2,0-0.3-0.2l-3.3-6.3h-0.1v6.3c0,0.1,0,0.2-0.2,0.2h-2.3
				c-0.1,0-0.2,0-0.2-0.2V29.3z"/>
		</g>
		<g>
			<path class="st0" d="M57.4,45.7c0-0.1,0-0.2,0.2-0.2H60c0.1,0,0.2,0,0.3,0.2l2.6,5.8h0.1l2.5-5.8c0-0.1,0.1-0.2,0.3-0.2h2.4
				c0.1,0,0.2,0,0.2,0.2v10.9c0,0.1,0,0.2-0.2,0.2h-2.3c-0.1,0-0.2,0-0.2-0.2v-5.8h-0.1L63.8,55c-0.1,0.2-0.2,0.2-0.3,0.2h-1.3
				c-0.1,0-0.2-0.1-0.3-0.2l-1.8-4.2H60v5.8c0,0.1,0,0.2-0.2,0.2h-2.3c-0.1,0-0.2,0-0.2-0.2V45.7z"/>
			<path class="st0" d="M70.1,52.4v-6.7c0-0.1,0-0.2,0.2-0.2h2.6c0.1,0,0.2,0,0.2,0.2v6.9c0,1.1,0.6,1.8,1.6,1.8
				c1,0,1.5-0.6,1.5-1.8v-6.9c0-0.1,0-0.2,0.2-0.2h2.6c0.1,0,0.2,0,0.2,0.2v6.7c0,3-1.8,4.5-4.4,4.5C71.8,56.9,70.1,55.4,70.1,52.4"
				/>
			<path class="st0" d="M80.8,45.7c0-0.1,0-0.2,0.2-0.2h2.4c0.1,0,0.2,0,0.3,0.2L87,52h0.1v-6.3c0-0.1,0-0.2,0.2-0.2h2.3
				c0.1,0,0.2,0,0.2,0.2v10.9c0,0.1,0,0.2-0.2,0.2h-2.4c-0.1,0-0.2,0-0.3-0.2l-3.3-6.3h-0.1v6.3c0,0.1,0,0.2-0.2,0.2h-2.3
				c-0.1,0-0.2,0-0.2-0.2V45.7z"/>
			<path class="st0" d="M91.5,45.7c0-0.1,0-0.2,0.2-0.2h2.6c0.1,0,0.2,0,0.2,0.2v10.9c0,0.1,0,0.2-0.2,0.2h-2.6
				c-0.1,0-0.2,0-0.2-0.2V45.7z"/>
			<path class="st0" d="M96,51.1c0-1.7,0.1-2.3,0.3-3c0.6-1.8,2-2.8,4.1-2.8c2,0,3.4,0.9,4,2.6c0,0.1,0,0.2-0.1,0.2l-2.2,1
				c-0.1,0-0.2,0-0.2-0.1c-0.3-0.7-0.7-1.1-1.5-1.1c-0.7,0-1.1,0.3-1.4,1c-0.1,0.3-0.2,0.7-0.2,2.2c0,1.5,0,1.9,0.2,2.2
				c0.2,0.6,0.7,1,1.4,1c0.8,0,1.2-0.4,1.5-1.1c0-0.1,0.1-0.1,0.2-0.1l2.2,1c0.1,0,0.1,0.1,0.1,0.2c-0.6,1.6-2,2.6-4,2.6
				c-2,0-3.5-0.9-4.1-2.8C96,53.4,96,52.8,96,51.1"/>
			<path class="st0" d="M105.7,45.7c0-0.1,0-0.2,0.2-0.2h2.6c0.1,0,0.2,0,0.2,0.2v10.9c0,0.1,0,0.2-0.2,0.2h-2.6
				c-0.1,0-0.2,0-0.2-0.2V45.7z"/>
			<path class="st0" d="M110.6,56.7c-0.1,0-0.2,0-0.2-0.2V45.7c0-0.1,0-0.2,0.2-0.2h4.5c2.7,0,4.1,1.6,4.1,3.7
				c0,2.2-1.4,3.7-4.1,3.7h-1.6c-0.1,0-0.1,0-0.1,0.1v3.5c0,0.1,0,0.2-0.2,0.2H110.6z M114.9,50.5c0.9,0,1.4-0.5,1.4-1.3
				c0-0.8-0.5-1.3-1.4-1.3h-1.5c-0.1,0-0.1,0-0.1,0.1v2.4c0,0.1,0,0.1,0.1,0.1H114.9z"/>
			<path class="st0" d="M122,45.7c0-0.1,0.1-0.2,0.2-0.2h2.7c0.1,0,0.2,0,0.2,0.2l3.8,10.9c0,0.1,0,0.2-0.1,0.2h-2.7
				c-0.1,0-0.2,0-0.2-0.2l-0.5-1.7h-3.6l-0.5,1.7c0,0.1-0.1,0.2-0.2,0.2h-2.7c-0.1,0-0.1,0-0.1-0.2L122,45.7z M124.6,52.4l-1-3.5h0
				l-1.1,3.5H124.6z"/>
			<path class="st0" d="M130,45.7c0-0.1,0-0.2,0.2-0.2h2.6c0.1,0,0.2,0,0.2,0.2v8.4c0,0.1,0,0.1,0.1,0.1h4.7c0.1,0,0.2,0,0.2,0.2
				v2.2c0,0.1,0,0.2-0.2,0.2h-7.6c-0.1,0-0.2,0-0.2-0.2V45.7z"/>
			<path class="st0" d="M139.1,45.7c0-0.1,0-0.2,0.2-0.2h2.6c0.1,0,0.2,0,0.2,0.2v10.9c0,0.1,0,0.2-0.2,0.2h-2.6
				c-0.1,0-0.2,0-0.2-0.2V45.7z"/>
			<path class="st0" d="M146.3,56.7L146.3,56.7c-0.1,0-0.1,0-0.1,0c0,0,0,0,0-0.1v0v-8.4c0,0,0-0.1-0.1-0.1h0h-2.7h0c0,0,0,0-0.1,0
				l0,0l0,0c0,0,0,0,0-0.1v-2.2c0-0.1,0-0.1,0.1-0.2h0h8.6c0,0,0.1,0,0.1,0c0,0,0,0,0,0c0,0,0,0,0,0.1v2.2c0,0,0,0.1,0,0.1
				c0,0,0,0-0.1,0h0h-2.7c0,0,0,0-0.1,0l0,0v0v8.4v0c0,0,0,0.1-0.1,0.1c0,0,0,0-0.1,0H146.3z"/>
			<path class="st0" d="M155.9,56.7c-0.1,0-0.2,0-0.2-0.2v-4.2l-3.4-6.7c0-0.1,0-0.2,0.1-0.2h2.6c0.1,0,0.2,0,0.3,0.2l1.9,3.8h0
				l1.8-3.8c0-0.1,0.1-0.2,0.3-0.2h2.5c0.1,0,0.2,0.1,0.1,0.2l-3.4,6.7v4.2c0,0.1,0,0.2-0.2,0.2H155.9z"/>
		</g>
	</g>
</g>
</svg>
